{"accessors" : [{"bufferView" : 0, "byteOffset" : 0, "componentType" : 5123, "count" : 5760, "type" : "SCALAR", "max" : [5759], "min" : [0]}, {"bufferView" : 1, "byteOffset" : 0, "componentType" : 5126, "count" : 5760, "type" : "VEC3", "max" : [9.914813995361328, 9.914814949035645, 2.0999999046325684], "min" : [-9.914814949035645, -9.914813995361328, -0.8999999761581421], "name" : "POSITION"}, {"bufferView" : 1, "byteOffset" : 12, "componentType" : 5126, "count" : 5760, "type" : "VEC3", "max" : [1.0000044107437134, 1.0000044107437134, 1.0000041723251343], "min" : [-1.0000044107437134, -1.0000044107437134, -1.0000041723251343], "name" : "NORMAL"}, {"bufferView" : 1, "byteOffset" : 24, "componentType" : 5126, "count" : 5760, "type" : "VEC2", "max" : [0.9999999403953552, -0], "min" : [-5.960464477539063E-08, -1], "name" : "TEXCOORD_0"}, {"bufferView" : 0, "byteOffset" : 11520, "componentType" : 5123, "count" : 5760, "type" : "SCALAR", "max" : [5759], "min" : [0]}, {"bufferView" : 2, "byteOffset" : 0, "componentType" : 5126, "count" : 5760, "type" : "VEC3", "max" : [9.914813995361328, 9.914814949035645, 2.0999999046325684], "min" : [-9.914814949035645, -9.914813995361328, -0.8999999761581421], "name" : "POSITION"}, {"bufferView" : 2, "byteOffset" : 12, "componentType" : 5126, "count" : 5760, "type" : "VEC3", "max" : [1.0000044107437134, 1.0000044107437134, 1.0000041723251343], "min" : [-1.0000044107437134, -1.0000044107437134, -1.0000041723251343], "name" : "NORMAL"}, {"bufferView" : 2, "byteOffset" : 24, "componentType" : 5126, "count" : 5760, "type" : "VEC2", "max" : [0.9999999403953552, -0], "min" : [-5.960464477539063E-08, -1], "name" : "TEXCOORD_0"}], "asset" : {"generator" : "Aspose.3D 22.7", "version" : "2.0"}, "buffers" : [{"uri" : "data:application/octet-stream;base64,", "byteLength" : 391692}], "bufferViews" : [{"buffer" : 0, "byteOffset" : 0, "byteLength" : 23040, "target" : 34963}, {"buffer" : 0, "byteOffset" : 23044, "byteLength" : 184320, "byteStride" : 32, "target" : 34962}, {"buffer" : 0, "byteOffset" : 207368, "byteLength" : 184320, "byteStride" : 32, "target" : 34962}], "materials" : [{"name" : "", "pbrMetallicRoughness" : {"baseColorFactor" : [0.9330000281333923, 0.7739999890327454, 0.37400001287460327, 1], "metallicFactor" : 1, "roughnessFactor" : 0.26999998092651367}, "emissiveFactor" : [0, 0, 0], "alphaMode" : "OPAQUE", "doubleSided" : false}, {"name" : "", "pbrMetallicRoughness" : {"baseColorFactor" : [0.9330000281333923, 0.7739999890327454, 0.37400001287460327, 1], "metallicFactor" : 1, "roughnessFactor" : 0.26999998092651367}, "emissiveFactor" : [0, 0, 0], "alphaMode" : "OPAQUE", "doubleSided" : false}], "meshes" : [{"primitives" : [{"attributes" : {"POSITION" : 1, "NORMAL" : 2, "TEXCOORD_0" : 3}, "indices" : 0, "material" : 0, "mode" : 4}], "name" : ""}, {"primitives" : [{"attributes" : {"POSITION" : 5, "NORMAL" : 6, "TEXCOORD_0" : 7}, "indices" : 4, "material" : 1, "mode" : 4}], "name" : ""}], "nodes" : [{"matrix" : [1, 0, 0, 0, 0, 1, 0, 0, 0, 0, 1, 0, 0, -4.76837158203125E-07, -0.5999999642372131, 1], "mesh" : 0, "name" : "Cylinder001"}, {"matrix" : [-1, 0, 0, 0, 0, 0.9499999999999964, -8.30516395486824E-08, 0, 0, 8.742277847229726E-08, 0.9999999999999962, 0, 0, -4.76837158203125E-07, -0.5999999642372131, 1], "mesh" : 1, "name" : "Cylinder002"}, {"children" : [0, 1], "matrix" : [1, 0, 0, 0, 0, 6.123233995736766E-17, -1, 0, 0, 1, 6.123233995736766E-17, 0, 0, 0.5999999642372131, -4.76837158203125E-07, 1], "name" : "001"}], "scene" : 0, "scenes" : [{"nodes" : [2]}]}