{"accessors" : [{"bufferView" : 0, "byteOffset" : 0, "componentType" : 5123, "count" : 14112, "type" : "SCALAR", "max" : [14111], "min" : [0]}, {"bufferView" : 1, "byteOffset" : 0, "componentType" : 5126, "count" : 14112, "type" : "VEC3", "max" : [9.98630428314209, 9.986305236816406, 2.6500000953674316], "min" : [-9.986305236816406, -9.909321784973145, -1.6500002145767212], "name" : "POSITION"}, {"bufferView" : 1, "byteOffset" : 12, "componentType" : 5126, "count" : 14112, "type" : "VEC3", "max" : [1.0000025033950806, 1.0000011920928955, 1.0000017881393433], "min" : [-1.0000025033950806, -1.0000016689300537, -1.0000017881393433], "name" : "NORMAL"}, {"bufferView" : 1, "byteOffset" : 24, "componentType" : 5126, "count" : 14112, "type" : "VEC2", "max" : [0.9833333492279053, -0], "min" : [-0.016666650772094727, -1], "name" : "TEXCOORD_0"}, {"bufferView" : 0, "byteOffset" : 28224, "componentType" : 5123, "count" : 14112, "type" : "SCALAR", "max" : [14111], "min" : [0]}, {"bufferView" : 2, "byteOffset" : 0, "componentType" : 5126, "count" : 14112, "type" : "VEC3", "max" : [9.98630428314209, 9.986305236816406, 2.6500000953674316], "min" : [-9.986305236816406, -9.909321784973145, -1.6500002145767212], "name" : "POSITION"}, {"bufferView" : 2, "byteOffset" : 12, "componentType" : 5126, "count" : 14112, "type" : "VEC3", "max" : [1.0000025033950806, 1.0000011920928955, 1.0000017881393433], "min" : [-1.0000025033950806, -1.0000016689300537, -1.0000017881393433], "name" : "NORMAL"}, {"bufferView" : 2, "byteOffset" : 24, "componentType" : 5126, "count" : 14112, "type" : "VEC2", "max" : [0.9833333492279053, -0], "min" : [-0.016666650772094727, -1], "name" : "TEXCOORD_0"}], "asset" : {"generator" : "Aspose.3D 22.7", "version" : "2.0"}, "buffers" : [{"uri" : "data:application/octet-stream;base64,", "byteLength" : 959628}], "bufferViews" : [{"buffer" : 0, "byteOffset" : 0, "byteLength" : 56448, "target" : 34963}, {"buffer" : 0, "byteOffset" : 56452, "byteLength" : 451584, "byteStride" : 32, "target" : 34962}, {"buffer" : 0, "byteOffset" : 508040, "byteLength" : 451584, "byteStride" : 32, "target" : 34962}], "materials" : [{"name" : "", "pbrMetallicRoughness" : {"baseColorFactor" : [0.9279999732971191, 0.949999988079071, 0.9620000123977661, 1], "metallicFactor" : 1, "roughnessFactor" : 0.07000000029802322}, "emissiveFactor" : [0, 0, 0], "alphaMode" : "OPAQUE", "doubleSided" : false}, {"name" : "", "pbrMetallicRoughness" : {"baseColorFactor" : [0.9279999732971191, 0.949999988079071, 0.9620000123977661, 1], "metallicFactor" : 1, "roughnessFactor" : 0.07000000029802322}, "emissiveFactor" : [0, 0, 0], "alphaMode" : "OPAQUE", "doubleSided" : false}], "meshes" : [{"primitives" : [{"attributes" : {"POSITION" : 1, "NORMAL" : 2, "TEXCOORD_0" : 3}, "indices" : 0, "material" : 0, "mode" : 4}], "name" : ""}, {"primitives" : [{"attributes" : {"POSITION" : 5, "NORMAL" : 6, "TEXCOORD_0" : 7}, "indices" : 4, "material" : 1, "mode" : 4}], "name" : ""}], "nodes" : [{"matrix" : [1, 0, 0, 0, 0, 1, 0, 0, 0, 0, 1, 0, 4.76837158203125E-07, -0.03849172592163086, -0.4999999403953552, 1], "mesh" : 0, "name" : "Cylinder005"}, {"matrix" : [0.9999999999998408, -5.642599491098903E-07, 0, 0, 5.642599491098903E-07, 0.9999999999998408, 0, 0, 0, 0, -1, 0, 4.76837158203125E-07, -0.03849172592163086, 0.5, 1], "mesh" : 1, "name" : "Cylinder006"}, {"children" : [0, 1], "matrix" : [1, 0, 0, 0, 0, 6.123233995736766E-17, -1, 0, 0, 1, 6.123233995736766E-17, 0, -4.76837158203125E-07, 0.4999999403953552, -0.03849172592163086, 1], "name" : "001"}], "scene" : 0, "scenes" : [{"nodes" : [2]}]}