{"accessors" : [{"bufferView" : 0, "byteOffset" : 0, "componentType" : 5123, "count" : 24, "type" : "SCALAR", "max" : [23], "min" : [0]}, {"bufferView" : 1, "byteOffset" : 0, "componentType" : 5126, "count" : 24, "type" : "VEC3", "max" : [2.354445457458496, 1.0887508392333984, 1], "min" : [-1.145554542541504, -1.3112492561340332, -3.89818399781916E-09], "name" : "POSITION"}, {"bufferView" : 1, "byteOffset" : 12, "componentType" : 5126, "count" : 24, "type" : "VEC3", "max" : [0.33628854155540466, 0.9500192403793335, 1.0000044107437134], "min" : [-1.0000044107437134, -0.941763699054718, -1.0000044107437134], "name" : "NORMAL"}, {"bufferView" : 0, "byteOffset" : 48, "componentType" : 5123, "count" : 444, "type" : "SCALAR", "max" : [443], "min" : [0]}, {"bufferView" : 2, "byteOffset" : 0, "componentType" : 5126, "count" : 444, "type" : "VEC3", "max" : [1.5777133703231812, 1.3569178581237793, 0.6000000238418579], "min" : [-3.022286891937256, -1.243082046508789, -6.217132408892212E-08], "name" : "POSITION"}, {"bufferView" : 2, "byteOffset" : 12, "componentType" : 5126, "count" : 444, "type" : "VEC3", "max" : [1.0000044107437134, 1.0000044107437134, 1.0000044107437134], "min" : [-1.0000044107437134, -1.0000044107437134, -1.0000044107437134], "name" : "NORMAL"}, {"bufferView" : 0, "byteOffset" : 936, "componentType" : 5123, "count" : 2796, "type" : "SCALAR", "max" : [2795], "min" : [0]}, {"bufferView" : 3, "byteOffset" : 0, "componentType" : 5126, "count" : 2796, "type" : "VEC3", "max" : [10.29903793334961, 10.494291305541992, 3.9910006523132324], "min" : [-10.4719820022583, -10.464054107666016, -0.29950499534606934], "name" : "POSITION"}, {"bufferView" : 3, "byteOffset" : 12, "componentType" : 5126, "count" : 2796, "type" : "VEC3", "max" : [0.99790358543396, 0.9958654046058655, 0.9973378777503967], "min" : [-0.9954042434692383, -0.9956648945808411, -0.9991276264190674], "name" : "NORMAL"}], "asset" : {"generator" : "Aspose.3D 22.7", "version" : "2.0"}, "buffers" : [{"uri" : "data:application/octet-stream;base64,", "byteLength" : 84880}], "bufferViews" : [{"buffer" : 0, "byteOffset" : 0, "byteLength" : 6528, "target" : 34963}, {"buffer" : 0, "byteOffset" : 6532, "byteLength" : 576, "byteStride" : 24, "target" : 34962}, {"buffer" : 0, "byteOffset" : 7112, "byteLength" : 10656, "byteStride" : 24, "target" : 34962}, {"buffer" : 0, "byteOffset" : 17772, "byteLength" : 67104, "byteStride" : 24, "target" : 34962}], "materials" : [{"name" : "", "pbrMetallicRoughness" : {"baseColorFactor" : [0.9279999732971191, 0.949999988079071, 0.9620000123977661, 1], "metallicFactor" : 1, "roughnessFactor" : 0.07000000029802322}, "emissiveFactor" : [0, 0, 0], "alphaMode" : "OPAQUE", "doubleSided" : false}, {"name" : "", "pbrMetallicRoughness" : {"baseColorFactor" : [0.9279999732971191, 0.949999988079071, 0.9620000123977661, 1], "metallicFactor" : 1, "roughnessFactor" : 0.07000000029802322}, "emissiveFactor" : [0, 0, 0], "alphaMode" : "OPAQUE", "doubleSided" : false}, {"name" : "", "pbrMetallicRoughness" : {"baseColorFactor" : [0.9279999732971191, 0.949999988079071, 0.9620000123977661, 1], "metallicFactor" : 1, "roughnessFactor" : 0.07000000029802322}, "emissiveFactor" : [0, 0, 0], "alphaMode" : "OPAQUE", "doubleSided" : false}], "meshes" : [{"primitives" : [{"attributes" : {"POSITION" : 1, "NORMAL" : 2}, "indices" : 0, "material" : 0, "mode" : 4}], "name" : ""}, {"primitives" : [{"attributes" : {"POSITION" : 4, "NORMAL" : 5}, "indices" : 3, "material" : 1, "mode" : 4}], "name" : ""}, {"primitives" : [{"attributes" : {"POSITION" : 7, "NORMAL" : 8}, "indices" : 6, "material" : 2, "mode" : 4}], "name" : ""}], "nodes" : [{"matrix" : [0.250379965419805, 0.966820836745739, 0.05066895055797148, 0, 6.242661262749472E-08, -0.05233599043242505, 0.9986295329627765, 0, 0.9681476503697012, -0.2500368247673251, -0.013103943830031686, 0, 9.266298294067383, -0.6807951927185059, 2.049083709716797, 1], "mesh" : 0, "name" : "Line001"}, {"matrix" : [-0.08715569846276007, 0.9948294614158145, 0.05213661788598329, 0, 1.2886996005826573E-07, -0.05233575983361789, 0.9986295450479228, 0, 0.9961947019661627, 0.08703626222304389, 0.004561231499245274, 0, 9.48382568359375, -1.6100419759750366, -1.679348349571228, 1], "mesh" : 1, "name" : "Line002"}, {"matrix" : [1, 0, 0, 0, 0, 1, 0, 0, 0, 0, 1, 0, -0.35196924209594727, -0.015118598937988281, -1.622430443763733, 1], "mesh" : 2, "name" : "Helix001"}, {"children" : [0, 1, 2], "matrix" : [1, 0, 0, 0, 0, 6.123233995736766E-17, -1, 0, 0, 1, 6.123233995736766E-17, 0, 0.35196924209594727, 1.622430443763733, -0.015118598937988281, 1], "name" : "001"}], "scene" : 0, "scenes" : [{"nodes" : [3]}]}