{"accessors" : [{"bufferView" : 0, "byteOffset" : 0, "componentType" : 5123, "count" : 11520, "type" : "SCALAR", "max" : [11519], "min" : [0]}, {"bufferView" : 1, "byteOffset" : 0, "componentType" : 5126, "count" : 11520, "type" : "VEC3", "max" : [9.978612899780273, 9.978611946105957, 2.4375], "min" : [-9.978611946105957, -9.978611946105957, 0.06249995529651642], "name" : "POSITION"}, {"bufferView" : 1, "byteOffset" : 12, "componentType" : 5126, "count" : 11520, "type" : "VEC3", "max" : [1.0000019073486328, 1.0000019073486328, 1.000000238418579], "min" : [-1.0000019073486328, -1.0000019073486328, -1.000000238418579], "name" : "NORMAL"}, {"bufferView" : 1, "byteOffset" : 24, "componentType" : 5126, "count" : 11520, "type" : "VEC2", "max" : [0.9999999403953552, -0], "min" : [-5.960464477539063E-08, -1], "name" : "TEXCOORD_0"}], "asset" : {"generator" : "Aspose.3D 22.7", "version" : "2.0"}, "buffers" : [{"uri" : "data:application/octet-stream;base64,", "byteLength" : 391688}], "bufferViews" : [{"buffer" : 0, "byteOffset" : 0, "byteLength" : 23040, "target" : 34963}, {"buffer" : 0, "byteOffset" : 23044, "byteLength" : 368640, "byteStride" : 32, "target" : 34962}], "materials" : [{"name" : "", "pbrMetallicRoughness" : {"baseColorFactor" : [0.9330000281333923, 0.7739999890327454, 0.37400001287460327, 1], "metallicFactor" : 1, "roughnessFactor" : 0.26999998092651367}, "emissiveFactor" : [0, 0, 0], "alphaMode" : "OPAQUE", "doubleSided" : false}], "meshes" : [{"primitives" : [{"attributes" : {"POSITION" : 1, "NORMAL" : 2, "TEXCOORD_0" : 3}, "indices" : 0, "material" : 0, "mode" : 4}], "name" : ""}], "nodes" : [{"matrix" : [1, 0, 0, 0, 0, 6.123233995736766E-17, -1, 0, 0, 1, 6.123233995736766E-17, 0, 0, 0, 0, 1], "mesh" : 0, "name" : "Cylinder002"}], "scene" : 0, "scenes" : [{"nodes" : [0]}]}