{"accessors" : [{"bufferView" : 0, "byteOffset" : 0, "componentType" : 5123, "count" : 24570, "type" : "SCALAR", "max" : [24569], "min" : [0]}, {"bufferView" : 1, "byteOffset" : 0, "componentType" : 5126, "count" : 24570, "type" : "VEC3", "max" : [46.157249450683594, 22.73159408569336, 5.000004291534424], "min" : [-16.273033142089844, -40.36379623413086, -5.000001430511475], "name" : "POSITION"}, {"bufferView" : 1, "byteOffset" : 12, "componentType" : 5126, "count" : 24570, "type" : "VEC3", "max" : [0.9999939799308777, 1.0000003576278687, 1.0000044107437134], "min" : [-0.9999939203262329, -1.0000005960464478, -1.0000044107437134], "name" : "NORMAL"}, {"bufferView" : 0, "byteOffset" : 49140, "componentType" : 5123, "count" : 576, "type" : "SCALAR", "max" : [575], "min" : [0]}, {"bufferView" : 2, "byteOffset" : 0, "componentType" : 5126, "count" : 576, "type" : "VEC3", "max" : [1.7959401607513428, 1.3760584592819214, 0.6000000238418579], "min" : [-3.003627300262451, -1.3039416074752808, -1.4689581107063532E-08], "name" : "POSITION"}, {"bufferView" : 2, "byteOffset" : 12, "componentType" : 5126, "count" : 576, "type" : "VEC3", "max" : [1.0000044107437134, 1.0000044107437134, 1.0000044107437134], "min" : [-1.0000044107437134, -1.0000044107437134, -1.0000044107437134], "name" : "NORMAL"}, {"bufferView" : 0, "byteOffset" : 50292, "componentType" : 5123, "count" : 2796, "type" : "SCALAR", "max" : [2795], "min" : [0]}, {"bufferView" : 3, "byteOffset" : 0, "componentType" : 5126, "count" : 2796, "type" : "VEC3", "max" : [10.299036026000977, 10.294220924377441, 3.723116397857666], "min" : [-10.273771286010742, -10.271879196166992, -0.2995055019855499], "name" : "POSITION"}, {"bufferView" : 3, "byteOffset" : 12, "componentType" : 5126, "count" : 2796, "type" : "VEC3", "max" : [0.9967905879020691, 0.995842456817627, 0.9983559250831604], "min" : [-0.9967906475067139, -0.9956420063972473, -0.9983559250831604], "name" : "NORMAL"}], "asset" : {"generator" : "Aspose.3D 22.7", "version" : "2.0"}, "buffers" : [{"uri" : "data:application/octet-stream;base64,", "byteLength" : 726508}], "bufferViews" : [{"buffer" : 0, "byteOffset" : 0, "byteLength" : 55884, "target" : 34963}, {"buffer" : 0, "byteOffset" : 55888, "byteLength" : 589680, "byteStride" : 24, "target" : 34962}, {"buffer" : 0, "byteOffset" : 645572, "byteLength" : 13824, "byteStride" : 24, "target" : 34962}, {"buffer" : 0, "byteOffset" : 659400, "byteLength" : 67104, "byteStride" : 24, "target" : 34962}], "materials" : [{"name" : "01 - Default", "pbrMetallicRoughness" : {"baseColorFactor" : [1, 0.5, 0.5, 1], "metallicFactor" : 0, "roughnessFactor" : 0}, "emissiveFactor" : [0, 0, 0], "alphaMode" : "OPAQUE", "doubleSided" : false}, {"name" : "01 - Default", "pbrMetallicRoughness" : {"baseColorFactor" : [1, 0.5, 0.5, 1], "metallicFactor" : 0, "roughnessFactor" : 0}, "emissiveFactor" : [0, 0, 0], "alphaMode" : "OPAQUE", "doubleSided" : false}, {"name" : "01 - Default", "pbrMetallicRoughness" : {"baseColorFactor" : [1, 0.5, 0.5, 1], "metallicFactor" : 0, "roughnessFactor" : 0}, "emissiveFactor" : [0, 0, 0], "alphaMode" : "OPAQUE", "doubleSided" : false}], "meshes" : [{"primitives" : [{"attributes" : {"POSITION" : 1, "NORMAL" : 2}, "indices" : 0, "material" : 0, "mode" : 4}], "name" : ""}, {"primitives" : [{"attributes" : {"POSITION" : 4, "NORMAL" : 5}, "indices" : 3, "material" : 1, "mode" : 4}], "name" : ""}, {"primitives" : [{"attributes" : {"POSITION" : 7, "NORMAL" : 8}, "indices" : 6, "material" : 2, "mode" : 4}], "name" : ""}], "nodes" : [{"matrix" : [-7.305712926827844E-05, -0.003662315440568655, 0.05988807985124949, 0, -0.017038600135960393, -0.057421331382038525, -0.0035322524996052123, 0, 0.047941520858914906, -0.014175931968380252, -0.0008084123713065094, 0, 9.716221125558047, -1.3041304457010618, 0.683853230519609, 1], "mesh" : 0, "name" : "Line026"}, {"matrix" : [-0.070613240570182, 0.8955520719198192, 0.054774599371390224, 0, 1.334327374232294E-07, -0.05494396308491242, 0.8983213016067836, 0, 0.9969173289747119, 0.0783128215906217, 0.004789693564481061, 0, 9.561108589172363, -1.656920075416565, -2.1004698276519775, 1], "mesh" : 1, "name" : "Line028"}, {"matrix" : [1, 0, 0, 0, 0, 1, 0, 0, 0, 0, 1, 0, -0.2665834426879883, -0.01117086410522461, -1.9550988674163818, 1], "mesh" : 2, "name" : "Helix002"}, {"children" : [0, 1, 2], "matrix" : [1, 0, 0, 0, 0, 6.123233995736766E-17, -1, 0, 0, 1, 6.123233995736766E-17, 0, 0.2665834426879883, 1.9550988674163818, -0.01117086410522461, 1], "name" : "001"}], "scene" : 0, "scenes" : [{"nodes" : [3]}]}