{"accessors" : [{"bufferView" : 0, "byteOffset" : 0, "componentType" : 5123, "count" : 2652, "type" : "SCALAR", "max" : [2651], "min" : [0]}, {"bufferView" : 1, "byteOffset" : 0, "componentType" : 5126, "count" : 2652, "type" : "VEC3", "max" : [230.87088012695312, 290.77166748046875, 2.483650405338267E-06], "min" : [-218.0313720703125, -221.90884399414062, -50.140010833740234], "name" : "POSITION"}, {"bufferView" : 1, "byteOffset" : 12, "componentType" : 5126, "count" : 2652, "type" : "VEC3", "max" : [1.0000032186508179, 0.8020210266113281, 1.0000044107437134], "min" : [-0.9997737407684326, -1.0000044107437134, -1.0000044107437134], "name" : "NORMAL"}, {"bufferView" : 0, "byteOffset" : 5304, "componentType" : 5123, "count" : 3756, "type" : "SCALAR", "max" : [3755], "min" : [0]}, {"bufferView" : 2, "byteOffset" : 0, "componentType" : 5126, "count" : 3756, "type" : "VEC3", "max" : [41.15699768066406, 17.73090934753418, 4.962853381584864E-06], "min" : [-11.272784233093262, -32.13920211791992, -4.6400017738342285], "name" : "POSITION"}, {"bufferView" : 2, "byteOffset" : 12, "componentType" : 5126, "count" : 3756, "type" : "VEC3", "max" : [0.9999938607215881, 1.000000238418579, 1.0000044107437134], "min" : [-0.9999939203262329, -0.7071099281311035, -1.0000044107437134], "name" : "NORMAL"}, {"bufferView" : 0, "byteOffset" : 12816, "componentType" : 5123, "count" : 660, "type" : "SCALAR", "max" : [659], "min" : [0]}, {"bufferView" : 3, "byteOffset" : 0, "componentType" : 5126, "count" : 660, "type" : "VEC3", "max" : [68.90997314453125, 92.81102752685547, 1.105392675526673E-05], "min" : [-68.89302062988281, -90.72415924072266, -17.140010833740234], "name" : "POSITION"}, {"bufferView" : 3, "byteOffset" : 12, "componentType" : 5126, "count" : 660, "type" : "VEC3", "max" : [0.8548063039779663, 0.6646931171417236, 1.0000044107437134], "min" : [-0.8548051714897156, -0.7359064221382141, -1.0000044107437134], "name" : "NORMAL"}, {"bufferView" : 0, "byteOffset" : 14136, "componentType" : 5123, "count" : 636, "type" : "SCALAR", "max" : [635], "min" : [0]}, {"bufferView" : 4, "byteOffset" : 0, "componentType" : 5126, "count" : 636, "type" : "VEC3", "max" : [69.91925811767578, 79.4228286743164, 7.791987854943727E-08], "min" : [-72.28515625, -69.30256652832031, -14.489999771118164], "name" : "POSITION"}, {"bufferView" : 4, "byteOffset" : 12, "componentType" : 5126, "count" : 636, "type" : "VEC3", "max" : [1.0000042915344238, 0.999876081943512, 1.0000044107437134], "min" : [-1.0000011920928955, -1.0000044107437134, -1.0000044107437134], "name" : "NORMAL"}, {"bufferView" : 0, "byteOffset" : 15408, "componentType" : 5123, "count" : 45168, "type" : "SCALAR", "max" : [45167], "min" : [0]}, {"bufferView" : 5, "byteOffset" : 0, "componentType" : 5126, "count" : 45168, "type" : "VEC3", "max" : [10.086840629577637, 10.247694969177246, 2.9883170127868652], "min" : [-10.236689567565918, -10.247696876525879, -0.25], "name" : "POSITION"}, {"bufferView" : 5, "byteOffset" : 12, "componentType" : 5126, "count" : 45168, "type" : "VEC3", "max" : [0.9995690584182739, 0.9997764229774475, 1.0000044107437134], "min" : [-0.9995690584182739, -0.9997764229774475, -1.0000044107437134], "name" : "NORMAL"}], "asset" : {"generator" : "Aspose.3D 22.7", "version" : "2.0"}, "buffers" : [{"uri" : "data:application/octet-stream;base64,", "byteLength" : 1374696}], "bufferViews" : [{"buffer" : 0, "byteOffset" : 0, "byteLength" : 105744, "target" : 34963}, {"buffer" : 0, "byteOffset" : 105748, "byteLength" : 63648, "byteStride" : 24, "target" : 34962}, {"buffer" : 0, "byteOffset" : 169400, "byteLength" : 90144, "byteStride" : 24, "target" : 34962}, {"buffer" : 0, "byteOffset" : 259548, "byteLength" : 15840, "byteStride" : 24, "target" : 34962}, {"buffer" : 0, "byteOffset" : 275392, "byteLength" : 15264, "byteStride" : 24, "target" : 34962}, {"buffer" : 0, "byteOffset" : 290660, "byteLength" : 1084032, "byteStride" : 24, "target" : 34962}], "materials" : [{"name" : "", "pbrMetallicRoughness" : {"baseColorFactor" : [0.9279999732971191, 0.949999988079071, 0.9620000123977661, 1], "metallicFactor" : 1, "roughnessFactor" : 0.07000000029802322}, "emissiveFactor" : [0, 0, 0], "alphaMode" : "OPAQUE", "doubleSided" : false}, {"name" : "", "pbrMetallicRoughness" : {"baseColorFactor" : [0.9279999732971191, 0.949999988079071, 0.9620000123977661, 1], "metallicFactor" : 1, "roughnessFactor" : 0.07000000029802322}, "emissiveFactor" : [0, 0, 0], "alphaMode" : "OPAQUE", "doubleSided" : false}, {"name" : "", "pbrMetallicRoughness" : {"baseColorFactor" : [0.9279999732971191, 0.949999988079071, 0.9620000123977661, 1], "metallicFactor" : 1, "roughnessFactor" : 0.07000000029802322}, "emissiveFactor" : [0, 0, 0], "alphaMode" : "OPAQUE", "doubleSided" : false}, {"name" : "", "pbrMetallicRoughness" : {"baseColorFactor" : [0.9279999732971191, 0.949999988079071, 0.9620000123977661, 1], "metallicFactor" : 1, "roughnessFactor" : 0.07000000029802322}, "emissiveFactor" : [0, 0, 0], "alphaMode" : "OPAQUE", "doubleSided" : false}, {"name" : "", "pbrMetallicRoughness" : {"baseColorFactor" : [0.9279999732971191, 0.949999988079071, 0.9620000123977661, 1], "metallicFactor" : 1, "roughnessFactor" : 0.07000000029802322}, "emissiveFactor" : [0, 0, 0], "alphaMode" : "OPAQUE", "doubleSided" : false}], "meshes" : [{"primitives" : [{"attributes" : {"POSITION" : 1, "NORMAL" : 2}, "indices" : 0, "material" : 0, "mode" : 4}], "name" : ""}, {"primitives" : [{"attributes" : {"POSITION" : 4, "NORMAL" : 5}, "indices" : 3, "material" : 1, "mode" : 4}], "name" : ""}, {"primitives" : [{"attributes" : {"POSITION" : 7, "NORMAL" : 8}, "indices" : 6, "material" : 2, "mode" : 4}], "name" : ""}, {"primitives" : [{"attributes" : {"POSITION" : 10, "NORMAL" : 11}, "indices" : 9, "material" : 3, "mode" : 4}], "name" : ""}, {"primitives" : [{"attributes" : {"POSITION" : 13, "NORMAL" : 14}, "indices" : 12, "material" : 4, "mode" : 4}], "name" : ""}], "nodes" : [{"matrix" : [-0.002079000238121339, -0.003600933491456266, 0, 0, -5.866665554389618E-10, 3.3871214543375863E-10, 0.004157999999999945, 0, -0.0036009334914562183, 0.0020790002381213114, -6.774242132777334E-10, 0, -8.585075378417969, 5.000000953674316, -0.1965487003326416, 1], "mesh" : 0, "name" : "Line009"}, {"matrix" : [-0.0078032546731710015, -0.04425430132207751, -2.0088405217957017E-08, 0, -2.6524838467215925E-08, -1.5721242337355068E-08, 0.04493699999998942, 0, -0.04425430132207413, 0.007803254673181023, -2.339188945213491E-08, 0, -9.656206793903525, 2.398792421144278, 0.3247205506695514, 1], "mesh" : 1, "name" : "Line010"}, {"matrix" : [0.0021129542894708676, -0.011983140163187883, -3.6263458150370946E-10, 0, -4.746333304057307E-09, -1.2051367759317996E-09, 0.012167999999999015, 0, -0.01198314016318695, -0.0021129542894705554, -4.883495739959693E-09, 0, -9.773075103759766, -1.7359989881515503, -0.015594720840454102, 1], "mesh" : 2, "name" : "Line011"}, {"matrix" : [0.0071944964692498455, -0.012461241573533165, -4.288256006790278E-10, 0, -3.3012768749695075E-09, -2.401156916234221E-09, 0.014388999999999421, 0, -0.012461241573532737, -0.007194496469249458, -4.059567975264134E-09, 0, -8.585075378417969, -4.999999046325684, -0.12198138236999512, 1], "mesh" : 3, "name" : "Line012"}, {"matrix" : [1, 0, 0, 0, 0, 1, 0, 0, 0, 0, 1, 0, 0.07492446899414062, 9.5367431640625E-07, -1.3691585063934326, 1], "mesh" : 4, "name" : "Arc002"}, {"children" : [0, 1, 2, 3, 4], "matrix" : [1, 0, 0, 0, 0, 6.123233995736766E-17, -1, 0, 0, 1, 6.123233995736766E-17, 0, -0.07492446899414062, 1.3691585063934326, 9.5367431640625E-07, 1], "name" : "001"}], "scene" : 0, "scenes" : [{"nodes" : [5]}]}