{
    "asset" : {
        "generator" : "Khronos glTF Blender I/O v1.8.19",
        "version" : "2.0"
    },
    "scene" : 0,
    "scenes" : [
        {
            "name" : "Scene",
            "nodes" : [
                1,
                19
            ]
        }
    ],
    "nodes" : [
        {
            "name" : "038F_05SET_04SHOT.OBJ.cleaner.materialmerger.gles"
        },
        {
            "children" : [
                0
            ],
            "name" : "Sketchfab_model",
            "rotation" : [
                -0.7071068286895752,
                0,
                0,
                0.7071068286895752
            ]
        },
        {
            "name" : "thumb_2",
            "rotation" : [
                0.0019290379714220762,
                0.0011352130677551031,
                -0.006319740787148476,
                0.9999775290489197
            ],
            "scale" : [
                1,
                1,
                0.9999999403953552
            ],
            "translation" : [
                -1.5042344614357717e-07,
                0.4618009328842163,
                -1.2827879913857032e-07
            ]
        },
        {
            "children" : [
                2
            ],
            "name" : "thumb_1",
            "rotation" : [
                -0.03744349628686905,
                0.01142682135105133,
                -0.26366719603538513,
                0.9638190269470215
            ],
            "scale" : [
                0.9999997019767761,
                0.9999997019767761,
                0.9999997019767761
            ],
            "translation" : [
                0.7120485305786133,
                0.5611568093299866,
                0.1868966668844223
            ]
        },
        {
            "name" : "index_3",
            "rotation" : [
                0.0695471540093422,
                -0.02175501547753811,
                0.011415510438382626,
                0.9972761273384094
            ],
            "scale" : [
                1.000000238418579,
                1,
                0.9999999403953552
            ],
            "translation" : [
                3.870802700589593e-08,
                0.4028770625591278,
                1.3073753279968514e-07
            ]
        },
        {
            "children" : [
                4
            ],
            "name" : "index_2",
            "rotation" : [
                0.2795112729072571,
                0.050400882959365845,
                -0.019797030836343765,
                0.9586142897605896
            ],
            "scale" : [
                0.9999999403953552,
                0.9999998807907104,
                0.9999997615814209
            ],
            "translation" : [
                -2.238087404293765e-08,
                0.4397645890712738,
                -1.0567510599912566e-07
            ]
        },
        {
            "children" : [
                5
            ],
            "name" : "index_1",
            "rotation" : [
                0.05599513649940491,
                -0.004258120898157358,
                -0.03445335477590561,
                0.9978273510932922
            ],
            "scale" : [
                0.9999997615814209,
                0.9999996423721313,
                0.9999997615814209
            ],
            "translation" : [
                0.48528745770454407,
                1.270943522453308,
                -0.06173572689294815
            ]
        },
        {
            "name" : "middle_3",
            "rotation" : [
                0.13906002044677734,
                0.017929958179593086,
                0.04046531021595001,
                0.9892944097518921
            ],
            "scale" : [
                1,
                0.9999998807907104,
                1
            ],
            "translation" : [
                -6.140891173345153e-08,
                0.4184824526309967,
                -4.557543036298739e-07
            ]
        },
        {
            "children" : [
                7
            ],
            "name" : "middle_2",
            "rotation" : [
                0.285727858543396,
                0.020009255036711693,
                0.010323220863938332,
                0.9580462574958801
            ],
            "scale" : [
                1,
                1.0000001192092896,
                0.9999999403953552
            ],
            "translation" : [
                -1.5159148603061112e-08,
                0.42853978276252747,
                -8.753491442803352e-08
            ]
        },
        {
            "children" : [
                8
            ],
            "name" : "middle_1",
            "rotation" : [
                0.07283365726470947,
                0.009529383853077888,
                -0.018042268231511116,
                0.99713534116745
            ],
            "scale" : [
                0.9999997615814209,
                0.9999998807907104,
                0.9999997019767761
            ],
            "translation" : [
                0.1385262906551361,
                1.373946189880371,
                -0.062410153448581696
            ]
        },
        {
            "name" : "ring_3",
            "rotation" : [
                0.07414521276950836,
                -0.08427342772483826,
                -0.04270260035991669,
                0.9927623271942139
            ],
            "scale" : [
                1,
                0.9999998807907104,
                0.9999999403953552
            ],
            "translation" : [
                8.604642331988543e-09,
                0.3709513247013092,
                1.1951384237818274e-07
            ]
        },
        {
            "children" : [
                10
            ],
            "name" : "ring_2",
            "rotation" : [
                0.31289130449295044,
                0.015946196392178535,
                -0.026491429656744003,
                0.949285626411438
            ],
            "scale" : [
                0.9999998807907104,
                1.0000003576278687,
                0.9999998807907104
            ],
            "translation" : [
                -1.847164199375584e-08,
                0.3835977017879486,
                -4.478162338727998e-07
            ]
        },
        {
            "children" : [
                11
            ],
            "name" : "ring_1",
            "rotation" : [
                0.16502583026885986,
                -0.013503290712833405,
                0.022008592262864113,
                0.9859511852264404
            ],
            "scale" : [
                0.9999996423721313,
                0.9999995827674866,
                0.9999997019767761
            ],
            "translation" : [
                -0.16209253668785095,
                1.3110215663909912,
                0.04450947791337967
            ]
        },
        {
            "name" : "little_3",
            "rotation" : [
                0.05707569420337677,
                -0.20371651649475098,
                -0.17915214598178864,
                0.9608051180839539
            ],
            "scale" : [
                1,
                1.0000003576278687,
                1.0000003576278687
            ],
            "translation" : [
                2.810048442825064e-07,
                0.26819345355033875,
                -1.440378412098653e-07
            ]
        },
        {
            "children" : [
                13
            ],
            "name" : "little_2",
            "rotation" : [
                0.31097397208213806,
                -0.10396966338157654,
                -0.12905363738536835,
                0.9358582496643066
            ],
            "scale" : [
                0.9999998211860657,
                1.0000001192092896,
                0.9999998807907104
            ],
            "translation" : [
                6.29743936997329e-08,
                0.3619160056114197,
                -3.4870126341957075e-08
            ]
        },
        {
            "children" : [
                14
            ],
            "name" : "little_1",
            "rotation" : [
                0.17680060863494873,
                -0.007258621975779533,
                0.10436590760946274,
                0.9786708354949951
            ],
            "scale" : [
                0.9999997019767761,
                0.9999996423721313,
                0.9999998807907104
            ],
            "translation" : [
                -0.49341610074043274,
                1.0887749195098877,
                0.11516902595758438
            ]
        },
        {
            "children" : [
                3,
                6,
                9,
                12,
                15
            ],
            "name" : "palm",
            "rotation" : [
                -0.18182900547981262,
                0.0011618995340541005,
                -0.020698288455605507,
                0.9831116199493408
            ],
            "scale" : [
                1.000000238418579,
                0.9999998211860657,
                1.0000001192092896
            ],
            "translation" : [
                -1.3447701618929386e-08,
                1.3672114610671997,
                8.632808246034074e-09
            ]
        },
        {
            "children" : [
                16
            ],
            "name" : "wrist",
            "rotation" : [
                0.12586264312267303,
                -0.0020918380469083786,
                2.5248284146073274e-05,
                0.992045521736145
            ],
            "scale" : [
                1.0000001192092896,
                1.0000001192092896,
                0.9999999403953552
            ],
            "translation" : [
                -0.16252753138542175,
                0.045790620148181915,
                -0.029501643031835556
            ]
        },
        {
            "mesh" : 0,
            "name" : "Object_2",
            "skin" : 0
        },
        {
            "children" : [
                18,
                17
            ],
            "name" : "\u9aa8\u67b6",
            "scale" : [
                6.480801105499268,
                6.480801105499268,
                6.480801105499268
            ]
        }
    ],
    "materials" : [
        {
            "doubleSided" : true,
            "name" : "material2",
            "pbrMetallicRoughness" : {
                "baseColorTexture" : {
                    "index" : 0
                },
                "metallicFactor" : 0,
                "roughnessFactor" : 0.5
            }
        }
    ],
    "meshes" : [
        {
            "name" : "Object_0",
            "primitives" : [
                {
                    "attributes" : {
                        "POSITION" : 0,
                        "NORMAL" : 1,
                        "TEXCOORD_0" : 2,
                        "JOINTS_0" : 3,
                        "WEIGHTS_0" : 4
                    },
                    "indices" : 5,
                    "material" : 0
                }
            ]
        }
    ],
    "textures" : [
        {
            "sampler" : 0,
            "source" : 0
        }
    ],
    "images" : [
        {
            "mimeType" : "image/png",
            "name" : "default_diffuse.png.002",
            "uri" : "textures/default_diffuse.png"
        }
    ],
    "skins" : [
        {
            "inverseBindMatrices" : 6,
            "joints" : [
                17,
                16,
                3,
                2,
                6,
                5,
                4,
                9,
                8,
                7,
                12,
                11,
                10,
                15,
                14,
                13
            ],
            "name" : "\u9aa8\u67b6"
        }
    ],
    "accessors" : [
        {
            "bufferView" : 0,
            "componentType" : 5126,
            "count" : 4390,
            "max" : [
                7.251594543457031,
                24.724756240844727,
                5.976968765258789
            ],
            "min" : [
                -4.986300468444824,
                -0.23286870121955872,
                -2.940427780151367
            ],
            "type" : "VEC3"
        },
        {
            "bufferView" : 1,
            "componentType" : 5126,
            "count" : 4390,
            "type" : "VEC3"
        },
        {
            "bufferView" : 2,
            "componentType" : 5126,
            "count" : 4390,
            "type" : "VEC2"
        },
        {
            "bufferView" : 3,
            "componentType" : 5121,
            "count" : 4390,
            "type" : "VEC4"
        },
        {
            "bufferView" : 4,
            "componentType" : 5126,
            "count" : 4390,
            "type" : "VEC4"
        },
        {
            "bufferView" : 5,
            "componentType" : 5123,
            "count" : 24246,
            "type" : "SCALAR"
        },
        {
            "bufferView" : 6,
            "componentType" : 5126,
            "count" : 16,
            "type" : "MAT4"
        }
    ],
    "bufferViews" : [
        {
            "buffer" : 0,
            "byteLength" : 52680,
            "byteOffset" : 0
        },
        {
            "buffer" : 0,
            "byteLength" : 52680,
            "byteOffset" : 52680
        },
        {
            "buffer" : 0,
            "byteLength" : 35120,
            "byteOffset" : 105360
        },
        {
            "buffer" : 0,
            "byteLength" : 17560,
            "byteOffset" : 140480
        },
        {
            "buffer" : 0,
            "byteLength" : 70240,
            "byteOffset" : 158040
        },
        {
            "buffer" : 0,
            "byteLength" : 48492,
            "byteOffset" : 228280
        },
        {
            "buffer" : 0,
            "byteLength" : 1024,
            "byteOffset" : 276772
        }
    ],
    "samplers" : [
        {
            "magFilter" : 9729,
            "minFilter" : 9987
        }
    ],
    "buffers" : [
        {
            "byteLength" : 277796,
            "uri" : "female_hand.bin"
        }
    ]
}
