{
    "asset" : {
        "generator" : "Khronos glTF Blender I/O v1.8.19",
        "version" : "2.0"
    },
    "scene" : 0,
    "scenes" : [
        {
            "name" : "Scene",
            "nodes" : [
                1,
                19
            ]
        }
    ],
    "nodes" : [
        {
            "name" : "038F_05SET_04SHOT.OBJ.cleaner.materialmerger.gles"
        },
        {
            "children" : [
                0
            ],
            "name" : "Sketchfab_model",
            "rotation" : [
                -0.7071068286895752,
                0,
                0,
                0.7071068286895752
            ]
        },
        {
            "name" : "thumb_2",
            "rotation" : [
                0.0019290923373773694,
                0.0011352687142789364,
                -0.006319650448858738,
                0.9999775290489197
            ],
            "scale" : [
                1.0000001192092896,
                1,
                1
            ],
            "translation" : [
                -1.4485031840649754e-07,
                0.4618006944656372,
                -2.2554665690677211e-07
            ]
        },
        {
            "children" : [
                2
            ],
            "name" : "thumb_1",
            "rotation" : [
                -0.03744355961680412,
                0.01142688374966383,
                -0.26366710662841797,
                0.9638190269470215
            ],
            "scale" : [
                0.9999997019767761,
                0.9999997019767761,
                0.9999995231628418
            ],
            "translation" : [
                0.712048351764679,
                0.5611569881439209,
                0.18689675629138947
            ]
        },
        {
            "name" : "index_3",
            "rotation" : [
                0.06954729557037354,
                -0.021755095571279526,
                0.011415567249059677,
                0.9972761273384094
            ],
            "scale" : [
                1.0000003576278687,
                0.9999998807907104,
                1
            ],
            "translation" : [
                1.2989852393729961e-07,
                0.40287747979164124,
                -1.4658051661342597e-08
            ]
        },
        {
            "children" : [
                4
            ],
            "name" : "index_2",
            "rotation" : [
                0.27951133251190186,
                0.050400953739881516,
                -0.019796976819634438,
                0.9586142301559448
            ],
            "scale" : [
                0.9999998807907104,
                0.9999998807907104,
                0.9999998211860657
            ],
            "translation" : [
                -5.060952901203564e-08,
                0.43976494669914246,
                -6.188007262153405e-08
            ]
        },
        {
            "children" : [
                5
            ],
            "name" : "index_1",
            "rotation" : [
                0.055995140224695206,
                -0.004258116707205772,
                -0.0344533771276474,
                0.9978273510932922
            ],
            "scale" : [
                0.9999996423721313,
                0.9999994039535522,
                0.9999997019767761
            ],
            "translation" : [
                0.4852873682975769,
                1.2709441184997559,
                -0.06173565238714218
            ]
        },
        {
            "name" : "middle_3",
            "rotation" : [
                0.13906019926071167,
                0.017929939553141594,
                0.04046529531478882,
                0.9892944097518921
            ],
            "scale" : [
                1,
                0.9999998807907104,
                1
            ],
            "translation" : [
                -1.1834208635264076e-07,
                0.4184831380844116,
                -6.662167493232118e-07
            ]
        },
        {
            "children" : [
                7
            ],
            "name" : "middle_2",
            "rotation" : [
                0.2857280969619751,
                0.02000926248729229,
                0.010323259979486465,
                0.9580461978912354
            ],
            "scale" : [
                1,
                1.0000001192092896,
                0.9999999403953552
            ],
            "translation" : [
                -3.3603583915464696e-08,
                0.4285399615764618,
                7.62290781608499e-08
            ]
        },
        {
            "children" : [
                8
            ],
            "name" : "middle_1",
            "rotation" : [
                0.07283366471529007,
                0.009529393166303635,
                -0.018042296171188354,
                0.9971354007720947
            ],
            "scale" : [
                0.9999997019767761,
                0.9999998211860657,
                0.9999995827674866
            ],
            "translation" : [
                0.13852626085281372,
                1.3739471435546875,
                -0.062410056591033936
            ]
        },
        {
            "name" : "ring_3",
            "rotation" : [
                0.07414532452821732,
                -0.08427347242832184,
                -0.04270258918404579,
                0.9927623271942139
            ],
            "scale" : [
                0.9999998807907104,
                0.9999998211860657,
                0.9999999403953552
            ],
            "translation" : [
                1.278966266227144e-08,
                0.37095168232917786,
                -4.524199326283451e-08
            ]
        },
        {
            "children" : [
                10
            ],
            "name" : "ring_2",
            "rotation" : [
                0.3128913342952728,
                0.01594620756804943,
                -0.02649141103029251,
                0.9492855072021484
            ],
            "scale" : [
                0.9999998211860657,
                1.0000004768371582,
                1
            ],
            "translation" : [
                -5.652047718740505e-09,
                0.3835979104042053,
                -5.554904873861233e-07
            ]
        },
        {
            "children" : [
                11
            ],
            "name" : "ring_1",
            "rotation" : [
                0.16502580046653748,
                -0.013503294438123703,
                0.022008582949638367,
                0.9859511852264404
            ],
            "scale" : [
                0.9999994039535522,
                0.9999994039535522,
                0.9999995827674866
            ],
            "translation" : [
                -0.16209249198436737,
                1.3110218048095703,
                0.04450960084795952
            ]
        },
        {
            "name" : "little_3",
            "rotation" : [
                0.05707594379782677,
                -0.20371638238430023,
                -0.17915219068527222,
                0.9608051180839539
            ],
            "scale" : [
                0.9999999403953552,
                1.0000003576278687,
                1.0000003576278687
            ],
            "translation" : [
                1.9236466641814332e-07,
                0.2681938707828522,
                -2.672114760571276e-07
            ]
        },
        {
            "children" : [
                13
            ],
            "name" : "little_2",
            "rotation" : [
                0.3109740614891052,
                -0.10396964848041534,
                -0.12905356287956238,
                0.9358583688735962
            ],
            "scale" : [
                0.9999997615814209,
                1.0000001192092896,
                0.9999998211860657
            ],
            "translation" : [
                5.459241947392002e-08,
                0.36191636323928833,
                -1.5312325629679435e-08
            ]
        },
        {
            "children" : [
                14
            ],
            "name" : "little_1",
            "rotation" : [
                0.1768006831407547,
                -0.0072586373426020145,
                0.10436581820249557,
                0.9786708354949951
            ],
            "scale" : [
                0.9999994039535522,
                0.999999463558197,
                0.9999997615814209
            ],
            "translation" : [
                -0.4934159219264984,
                1.088775396347046,
                0.11516905575990677
            ]
        },
        {
            "children" : [
                3,
                6,
                9,
                12,
                15
            ],
            "name" : "palm",
            "rotation" : [
                -0.18182902038097382,
                0.001161907217465341,
                -0.02069828100502491,
                0.9831116199493408
            ],
            "scale" : [
                1.000000238418579,
                0.9999997019767761,
                1.0000001192092896
            ],
            "translation" : [
                -1.768329127571633e-08,
                1.3672124147415161,
                -1.3523348663113666e-08
            ]
        },
        {
            "children" : [
                16
            ],
            "name" : "wrist",
            "rotation" : [
                0.1258627027273178,
                -0.0020918375812470913,
                2.524808223824948e-05,
                0.9920454621315002
            ],
            "scale" : [
                1.0000001192092896,
                1,
                0.9999998211860657
            ],
            "translation" : [
                -0.16252754628658295,
                0.045790620148181915,
                -0.029501643031835556
            ]
        },
        {
            "mesh" : 0,
            "name" : "Object_2",
            "skin" : 0
        },
        {
            "children" : [
                18,
                17
            ],
            "name" : "\u9aa8\u67b6",
            "scale" : [
                -6.480801105499268,
                6.480801105499268,
                6.480801105499268
            ]
        }
    ],
    "materials" : [
        {
            "doubleSided" : true,
            "name" : "Material",
            "pbrMetallicRoughness" : {
                "baseColorTexture" : {
                    "index" : 0
                },
                "metallicFactor" : 0,
                "roughnessFactor" : 0.4000000059604645
            }
        }
    ],
    "meshes" : [
        {
            "name" : "Object_0",
            "primitives" : [
                {
                    "attributes" : {
                        "POSITION" : 0,
                        "NORMAL" : 1,
                        "TEXCOORD_0" : 2,
                        "JOINTS_0" : 3,
                        "WEIGHTS_0" : 4
                    },
                    "indices" : 5,
                    "material" : 0
                }
            ]
        }
    ],
    "textures" : [
        {
            "sampler" : 0,
            "source" : 0
        }
    ],
    "images" : [
        {
            "mimeType" : "image/png",
            "name" : "default_diffuse.png",
            "uri" : "textures/default_diffuse.png"
        }
    ],
    "skins" : [
        {
            "inverseBindMatrices" : 6,
            "joints" : [
                17,
                16,
                3,
                2,
                6,
                5,
                4,
                9,
                8,
                7,
                12,
                11,
                10,
                15,
                14,
                13
            ],
            "name" : "\u9aa8\u67b6"
        }
    ],
    "accessors" : [
        {
            "bufferView" : 0,
            "componentType" : 5126,
            "count" : 4390,
            "max" : [
                4.986298084259033,
                24.724760055541992,
                5.976969242095947
            ],
            "min" : [
                -7.251593589782715,
                -0.23286868631839752,
                -2.9404282569885254
            ],
            "type" : "VEC3"
        },
        {
            "bufferView" : 1,
            "componentType" : 5126,
            "count" : 4390,
            "type" : "VEC3"
        },
        {
            "bufferView" : 2,
            "componentType" : 5126,
            "count" : 4390,
            "type" : "VEC2"
        },
        {
            "bufferView" : 3,
            "componentType" : 5121,
            "count" : 4390,
            "type" : "VEC4"
        },
        {
            "bufferView" : 4,
            "componentType" : 5126,
            "count" : 4390,
            "type" : "VEC4"
        },
        {
            "bufferView" : 5,
            "componentType" : 5123,
            "count" : 24246,
            "type" : "SCALAR"
        },
        {
            "bufferView" : 6,
            "componentType" : 5126,
            "count" : 16,
            "type" : "MAT4"
        }
    ],
    "bufferViews" : [
        {
            "buffer" : 0,
            "byteLength" : 52680,
            "byteOffset" : 0
        },
        {
            "buffer" : 0,
            "byteLength" : 52680,
            "byteOffset" : 52680
        },
        {
            "buffer" : 0,
            "byteLength" : 35120,
            "byteOffset" : 105360
        },
        {
            "buffer" : 0,
            "byteLength" : 17560,
            "byteOffset" : 140480
        },
        {
            "buffer" : 0,
            "byteLength" : 70240,
            "byteOffset" : 158040
        },
        {
            "buffer" : 0,
            "byteLength" : 48492,
            "byteOffset" : 228280
        },
        {
            "buffer" : 0,
            "byteLength" : 1024,
            "byteOffset" : 276772
        }
    ],
    "samplers" : [
        {
            "magFilter" : 9729,
            "minFilter" : 9987
        }
    ],
    "buffers" : [
        {
            "byteLength" : 277796,
            "uri" : "female_hand_left.bin"
        }
    ]
}
